<?xml version="1.0" encoding="UTF-8"?>
<svg id="Icons" xmlns="http://www.w3.org/2000/svg" viewBox="0 0 60 60">
  <defs>
    <style>
      .cls-1 {
        fill: #fff;
      }
    </style>
  </defs>
  <path class="cls-1" d="m59.33,9.75c-.3-.75-1.03-1.24-1.84-1.24h-6V2.52c0-.81-.49-1.54-1.23-1.85-.75-.31-1.61-.14-2.18.43l-4.9,4.9c-4.05-2.29-8.74-3.48-13.68-3.48C14.07,2.52,1.51,15.07,1.51,30.5s12.56,27.99,27.99,27.99,27.99-12.55,27.99-27.99c0-4.94-1.2-9.64-3.48-13.69l4.89-4.88c.57-.58.74-1.44.43-2.18Zm-9.84,2.76h3.17l-2.47,2.48c-.06.05-.12.11-.18.18l-1.35,1.34h-5.17v-5.17l1.35-1.35.18-.18,2.47-2.47v3.17c0,1.11.9,2,2,2Zm-9.99,17.99c0,5.52-4.49,10-10,10s-10-4.48-10-10,4.49-9.99,10-9.99c2.04,0,3.93.61,5.51,1.66l-6.92,6.92c-.78.78-.78,2.05,0,2.83.39.39.9.58,1.41.58s1.02-.19,1.41-.58l6.93-6.93c1.05,1.58,1.66,3.47,1.66,5.51Zm13.99,0c0,13.23-10.76,23.99-23.99,23.99S5.51,43.73,5.51,30.5,16.27,6.51,29.5,6.51c3.84,0,7.51.84,10.73,2.44l-.15.15c-.37.37-.58.88-.58,1.41v7.17l-1.62,1.62c-2.34-1.75-5.24-2.79-8.38-2.79-7.72,0-13.99,6.28-13.99,13.99s6.27,14,13.99,14,13.99-6.28,13.99-14c0-3.14-1.04-6.03-2.79-8.37l1.62-1.62h7.17c.53,0,1.04-.21,1.41-.59l.15-.15c1.6,3.22,2.44,6.88,2.44,10.73Z"/>
</svg>