<?xml version="1.0" encoding="UTF-8"?>
<svg id="DIAMOND" xmlns="http://www.w3.org/2000/svg" viewBox="0 0 60 60">
  <defs>
    <style>
      .cls-1 {
        fill: #fff;
      }
    </style>
  </defs>
  <path class="cls-1" d="m59.7,27.8l-15.1-15.8s0,0,0,0c0,0,0,0,0,0,0,0,0,0,0,0,0,0,0,0,0,0,0,0,0,0,0,0,0,0,0,0,0,0,0,0,0,0,0,0,0,0,0,0,0,0,0,0,0,0,0,0,0,0,0,0,0,0,0,0,0,0,0,0,0,0,0,0,0,0,0,0,0,0,0,0,0,0,0,0,0,0,0,0,0,0,0,0,0,0,0,0,0,0h-27.7s0,0,0,0c0,0,0,0,0,0,0,0,0,0,0,0,0,0,0,0,0,0,0,0,0,0,0,0,0,0,0,0,0,0,0,0,0,0,0,0,0,0,0,0,0,0,0,0,0,0,0,0,0,0,0,0,0,0,0,0,0,0,0,0,0,0,0,0,0,0,0,0,0,0,0,0,0,0,0,0,0,0,0,0,0,0,0,0L.3,27.8s0,0,0,0c0,0,0,0,0,0,0,0,0,0,0,0,0,0,0,0,0,0,0,0,0,0,0,0,0,0,0,0,0,0,0,0,0,0,0,0,0,0,0,0,0,0,0,0,0,0,0,0,0,0,0,0,0,0,0,0,0,0,0,0,0,0,0,0,0,0,0,0,0,0,0,0,0,0,0,0,0,0,0,0,0,0,0,0,0,0,0,0,0,.1s0,0,0,.1c0,0,0,0,0,0,0,0,0,0,0,0,0,0,0,0,0,0,0,0,0,0,0,0,0,0,0,0,0,0,0,0,0,0,0,0,0,0,0,0,0,0,0,0,0,0,0,0,0,0,0,0,0,0,0,0,0,0,0,0,0,0,0,0,0,0,0,0,0,0,0,0,0,0,0,0,0,0,0,0,0,0,0,0l28.9,30.3c.2.2.5.3.7.3s.5-.1.7-.3l28.9-30.3c.4-.4.4-1.1,0-1.6ZM16.6,13.9h7.8l-8.8,13.6H3.6l13-13.6Zm16.5,0l8.8,13.6h-23.7l8.8-13.6h6.1Zm10.4,0l13,13.6h-12l-8.8-13.6h7.8Zm-1.3,15.8l-12.2,25.6-12.2-25.6h24.3Zm-26.7,0l11.7,24.7L3.6,29.7h11.9Zm29.1,0h11.9l-23.6,24.7,11.7-24.7Z"/>
  <path class="cls-1" d="m30,8.4c.6,0,1.1-.5,1.1-1.1V1.1c0-.6-.5-1.1-1.1-1.1s-1.1.5-1.1,1.1v6.2c0,.6.5,1.1,1.1,1.1Z"/>
  <path class="cls-1" d="m38.1,7.9c.2.1.3.1.5.1.4,0,.7-.2.9-.6l3-5.4c.3-.5.1-1.2-.4-1.5-.5-.3-1.2-.1-1.4.4l-3,5.4c-.3.5-.1,1.2.4,1.5Z"/>
  <path class="cls-1" d="m48.1,9.2c.3,0,.5-.1.7-.3l4.2-4.4c.4-.4.4-1.1,0-1.6-.4-.4-1.1-.4-1.5,0l-4.2,4.4c-.4.4-.4,1.1,0,1.6.2.2.5.3.7.3Z"/>
  <path class="cls-1" d="m20.5,7.5c.2.4.6.6.9.6s.4,0,.5-.1c.5-.3.7-1,.4-1.5l-3-5.4c-.3-.5-.9-.7-1.4-.4-.5.3-.7,1-.4,1.5l3,5.4Z"/>
  <path class="cls-1" d="m11.1,8.9c.2.2.5.3.7.3s.5-.1.7-.3c.4-.4.4-1.1,0-1.6l-4.2-4.4c-.4-.4-1.1-.4-1.5,0-.4.4-.4,1.1,0,1.6l4.2,4.4Z"/>
</svg>