<?xml version="1.0" encoding="utf-8"?>
<!-- Generator: Adobe Illustrator 27.2.0, SVG Export Plug-In . SVG Version: 6.00 Build 0)  -->
<svg version="1.1" id="Layer_1" xmlns="http://www.w3.org/2000/svg" xmlns:xlink="http://www.w3.org/1999/xlink" x="0px" y="0px"
	 viewBox="0 0 60 40" style="enable-background:new 0 0 60 40;" xml:space="preserve">
<style type="text/css">
	.st0{fill-rule:evenodd;clip-rule:evenodd;fill:#FFFFFF;}
</style>
<path class="st0" d="M15.8,28.9c-3.8-3.3-6.5-7-7.8-8.9c1.3-1.9,4-5.7,7.8-8.9C19.7,7.7,24.5,5,30,5c5.5,0,10.3,2.7,14.2,6.1
	c3.8,3.3,6.5,7,7.8,8.9c-1.3,1.9-4,5.7-7.8,8.9C40.3,32.3,35.5,35,30,35C24.5,35,19.7,32.3,15.8,28.9z M30,0
	c-7.1,0-13.1,3.5-17.5,7.3C8.1,11.1,5,15.3,3.7,17.4c-1,1.6-1,3.6,0,5.2c1.4,2.1,4.4,6.4,8.8,10.2C16.9,36.5,22.9,40,30,40
	c7.1,0,13.1-3.5,17.5-7.3c4.4-3.8,7.5-8.1,8.8-10.2c1-1.6,1-3.6,0-5.2c-1.4-2.1-4.4-6.4-8.8-10.2C43.1,3.5,37.1,0,30,0z M25,20
	c0-2.8,2.2-5,5-5c2.8,0,5,2.2,5,5s-2.2,5-5,5C27.2,25,25,22.8,25,20z M30,10c-5.5,0-10,4.5-10,10c0,5.5,4.5,10,10,10
	c5.5,0,10-4.5,10-10C40,14.5,35.5,10,30,10z"/>
</svg>
